<svg width="232" height="232" viewBox="0 0 232 232" fill="none" xmlns="http://www.w3.org/2000/svg">
<path fill-rule="evenodd" clip-rule="evenodd" d="M116 222.333C57.2737 222.333 9.66669 174.726 9.66669 116C9.66669 57.2737 57.2737 9.66666 116 9.66666C174.726 9.66666 222.333 57.2737 222.333 116C222.333 174.726 174.726 222.333 116 222.333ZM187.528 165.538C197.283 151.48 203 134.407 203 116C203 67.9512 164.049 29 116 29C67.9512 29 29 67.9512 29 116C29 134.407 34.7167 151.48 44.4716 165.538C55.3509 151.168 80.9158 145 116 145C151.084 145 176.649 151.168 187.528 165.538ZM173.659 181.151C170.829 170.978 150.504 164.333 116 164.333C81.496 164.333 61.1707 170.978 58.3414 181.151C73.6919 194.746 93.8821 203 116 203C138.118 203 158.308 194.746 173.659 181.151ZM116 58C92.598 58 77.3333 74.9723 77.3333 96.6667C77.3333 129.798 94.355 145 116 145C137.442 145 154.667 130.303 154.667 98.6C154.667 76.5752 139.337 58 116 58ZM96.6667 96.6667C96.6667 118.603 104.576 125.667 116 125.667C127.385 125.667 135.333 118.884 135.333 98.6C135.333 86.5207 127.751 77.3333 116 77.3333C103.759 77.3333 96.6667 85.2196 96.6667 96.6667Z" fill="#D9D9D9"/>
</svg>
