<svg width="48" height="48" viewBox="0 0 48 48" fill="none" xmlns="http://www.w3.org/2000/svg">
<path d="M16 37.8564C18.4323 39.2607 21.1914 40 24 40C26.8086 40 29.5677 39.2607 32 37.8564C34.4323 36.4521 36.4521 34.4323 37.8564 32C39.2607 29.5677 40 26.8086 40 24C40 21.1914 39.2607 18.4323 37.8564 16C36.4521 13.5677 34.4323 11.5479 32 10.1436C29.5677 8.7393 26.8086 8 24 8C21.1914 8 18.4323 8.7393 16 10.1436" stroke="#4E4E4E" stroke-width="2"/>
<path d="M4 24L3.21913 23.3753L2.71938 24L3.21913 24.6247L4 24ZM22 25C22.5523 25 23 24.5523 23 24C23 23.4477 22.5523 23 22 23V25ZM11.2191 13.3753L3.21913 23.3753L4.78087 24.6247L12.7809 14.6247L11.2191 13.3753ZM3.21913 24.6247L11.2191 34.6247L12.7809 33.3753L4.78087 23.3753L3.21913 24.6247ZM4 25H22V23H4V25Z" fill="#4E4E4E"/>
</svg>
