<svg width="14" height="15" viewBox="0 0 14 15" fill="none" xmlns="http://www.w3.org/2000/svg">
<path d="M6 13.6667H1.33333C0.979711 13.6667 0.640573 13.5262 0.390524 13.2762C0.140476 13.0261 0 12.687 0 12.3334L0.00666666 3.00004C0.00666666 2.26671 0.593333 1.66671 1.33333 1.66671H2V0.333374H3.33333V1.66671H8.66667V0.333374H10V1.66671H10.6667C11.4 1.66671 12 2.26671 12 3.00004V7.00004H10.6667V5.66671H1.33333V12.3334H6V13.6667ZM12.7533 10.3267L13.2267 9.85337C13.2885 9.7917 13.3375 9.71844 13.371 9.63779C13.4044 9.55714 13.4216 9.47069 13.4216 9.38337C13.4216 9.29606 13.4044 9.20961 13.371 9.12896C13.3375 9.04831 13.2885 8.97505 13.2267 8.91337L12.7533 8.44004C12.6917 8.37824 12.6184 8.32921 12.5377 8.29575C12.4571 8.2623 12.3706 8.24508 12.2833 8.24508C12.196 8.24508 12.1096 8.2623 12.0289 8.29575C11.9483 8.32921 11.875 8.37824 11.8133 8.44004L11.34 8.91337L12.7533 10.3267ZM12.28 10.8L8.74667 14.3334H7.33333V12.92L10.8667 9.38671L12.28 10.8Z" fill="#4E4E4E"/>
</svg>
