<svg width="88" height="88" viewBox="0 0 88 88" fill="none" xmlns="http://www.w3.org/2000/svg">
<path d="M13.5381 15C13.5381 13.1144 13.5381 12.1716 14.1239 11.5858C14.7097 11 15.6525 11 17.5381 11H63.6919C65.5775 11 66.5204 11 67.1061 11.5858C67.6919 12.1716 67.6919 13.1144 67.6919 15V71C67.6919 73.8284 67.6919 75.2426 66.8133 76.1213C65.9346 77 64.5204 77 61.6919 77H19.5381C16.7097 77 15.2954 77 14.4168 76.1213C13.5381 75.2426 13.5381 73.8284 13.5381 71V15Z" stroke="#4E4E4E" stroke-width="4"/>
<path d="M50.7695 66L50.7695 77M30.4618 66L30.4618 77" stroke="#4E4E4E" stroke-width="4" stroke-linecap="round"/>
<path d="M30.4619 29.3333L50.7696 29.3333" stroke="#4E4E4E" stroke-width="4" stroke-linecap="round"/>
<path d="M30.4619 44L50.7696 44" stroke="#4E4E4E" stroke-width="4" stroke-linecap="round"/>
<path fill-rule="evenodd" clip-rule="evenodd" d="M69.2065 25.8595L73.2146 21.5175C74.5903 20.0271 75.2781 19.282 76.1538 19.282C77.0294 19.282 77.7173 20.0271 79.093 21.5175L80.4186 22.9535C81.607 24.241 82.2012 24.8847 82.2012 25.6667C82.2012 26.4486 81.607 27.0924 80.4186 28.3798L76.0276 33.1367C73.1959 31.2931 70.8568 28.7923 69.2065 25.8595ZM67.7872 27.3971L54.9382 41.3169C54.5486 41.739 54.3538 41.95 54.227 42.2033C54.1002 42.4567 54.0481 42.7391 53.9438 43.3039L52.5978 50.5949C52.5362 50.9288 52.5053 51.0958 52.6015 51.189C52.6976 51.2822 52.8635 51.2462 53.1954 51.1743L59.688 49.7676C60.3006 49.6349 60.6069 49.5685 60.8747 49.4154C61.1424 49.2623 61.355 49.032 61.7802 48.5714L74.6533 34.6255C71.8569 32.7453 69.514 30.2736 67.7872 27.3971Z" fill="#4E4E4E"/>
</svg>
