<svg width="50" height="48" viewBox="0 0 50 48" fill="none" xmlns="http://www.w3.org/2000/svg">
<path d="M48.6763 32.4118C48.135 30.2855 46.9424 28.4066 45.2832 27.0665C43.6241 25.7264 41.5913 25 39.5 25C37.4087 25 35.3759 25.7264 33.7168 27.0665C32.0576 28.4066 30.865 30.2855 30.3237 32.4118" stroke="#D9D9D9" stroke-width="2" stroke-linecap="round"/>
<circle cx="39" cy="15" r="5" stroke="#D9D9D9" stroke-width="2" stroke-linecap="round"/>
<path d="M19.6763 32.4118C19.135 30.2855 17.9424 28.4066 16.2832 27.0665C14.6241 25.7264 12.5913 25 10.5 25C8.40873 25 6.37589 25.7264 4.71677 27.0665C3.05765 28.4066 1.86497 30.2855 1.32371 32.4118" stroke="#D9D9D9" stroke-width="2" stroke-linecap="round"/>
<circle cx="11" cy="15" r="5" stroke="#D9D9D9" stroke-width="2" stroke-linecap="round"/>
<path d="M34.6593 38.7824C34.0895 36.5498 32.8341 34.5769 31.0876 33.1698C29.3412 31.7627 27.2013 31 25 31C22.7987 31 20.6588 31.7627 18.9124 33.1698C17.1659 34.5769 15.9105 36.5497 15.3407 38.7824" stroke="#D9D9D9" stroke-width="2" stroke-linecap="round"/>
<circle cx="25" cy="22" r="5" stroke="#D9D9D9" stroke-width="2" stroke-linecap="round"/>
</svg>
