<svg width="32" height="32" viewBox="0 0 32 32" fill="none" xmlns="http://www.w3.org/2000/svg">
<path fill-rule="evenodd" clip-rule="evenodd" d="M29.3333 7.66663C29.3333 7.11434 28.8856 6.66663 28.3333 6.66663H3.66667C3.11439 6.66663 2.66667 7.11434 2.66667 7.66663V8.33329C2.66667 8.88558 3.11439 9.33329 3.66667 9.33329H28.3333C28.8856 9.33329 29.3333 8.88558 29.3333 8.33329V7.66663ZM28.3333 14.6666C28.8856 14.6666 29.3333 15.1143 29.3333 15.6666V16.3333C29.3333 16.8856 28.8856 17.3333 28.3333 17.3333H3.66667C3.11439 17.3333 2.66667 16.8856 2.66667 16.3333V15.6666C2.66667 15.1143 3.11439 14.6666 3.66667 14.6666H28.3333ZM28.3333 22.6666C28.8856 22.6666 29.3333 23.1143 29.3333 23.6666V24.3333C29.3333 24.8856 28.8856 25.3333 28.3333 25.3333H3.66667C3.11439 25.3333 2.66667 24.8856 2.66667 24.3333V23.6666C2.66667 23.1143 3.11439 22.6666 3.66667 22.6666H28.3333Z" fill="#D9D9D9"/>
</svg>
