<svg width="48" height="48" viewBox="0 0 48 48" fill="none" xmlns="http://www.w3.org/2000/svg">
<path d="M10 23.5192C10 20.8037 10 19.4459 10.5489 18.2525C11.0978 17.059 12.1287 16.1754 14.1905 14.4081L16.1905 12.6939C19.9171 9.49959 21.7805 7.90247 24 7.90247C26.2195 7.90247 28.0829 9.49959 31.8095 12.6939L33.8095 14.4081C35.8713 16.1754 36.9022 17.059 37.4511 18.2525C38 19.4459 38 20.8037 38 23.5192V32C38 35.7712 38 37.6569 36.8284 38.8284C35.6569 40 33.7712 40 30 40H18C14.2288 40 12.3431 40 11.1716 38.8284C10 37.6569 10 35.7712 10 32V23.5192Z" stroke="#D9D9D9" stroke-width="2"/>
<path d="M29 40V29C29 28.4477 28.5523 28 28 28H20C19.4477 28 19 28.4477 19 29V40" stroke="#D9D9D9" stroke-width="2" stroke-linecap="round" stroke-linejoin="round"/>
</svg>
