<svg width="48" height="48" viewBox="0 0 48 48" fill="none" xmlns="http://www.w3.org/2000/svg">
<path d="M10 23.5191C10 20.8036 10 19.4458 10.5489 18.2523C11.0978 17.0589 12.1287 16.1753 14.1905 14.408L16.1905 12.6937C19.9171 9.49947 21.7805 7.90234 24 7.90234C26.2195 7.90234 28.0829 9.49947 31.8095 12.6937L33.8095 14.408C35.8713 16.1753 36.9022 17.0589 37.4511 18.2523C38 19.4458 38 20.8036 38 23.5191V31.9999C38 35.7711 38 37.6567 36.8284 38.8283C35.6569 39.9999 33.7712 39.9999 30 39.9999H18C14.2288 39.9999 12.3431 39.9999 11.1716 38.8283C10 37.6567 10 35.7711 10 31.9999V23.5191Z" fill="#4E4E4E" stroke="#D9D9D9" stroke-width="2"/>
<path d="M29 40V29C29 28.4477 28.5523 28 28 28H20C19.4477 28 19 28.4477 19 29V40" stroke="#D9D9D9" stroke-width="2" stroke-linecap="round" stroke-linejoin="round"/>
<path d="M10 23.5191C10 20.8036 10 19.4458 10.5489 18.2523C11.0978 17.0589 12.1287 16.1753 14.1905 14.408L16.1905 12.6937C19.9171 9.49947 21.7805 7.90234 24 7.90234C26.2195 7.90234 28.0829 9.49947 31.8095 12.6937L33.8095 14.408C35.8713 16.1753 36.9022 17.0589 37.4511 18.2523C38 19.4458 38 20.8036 38 23.5191V31.9999C38 35.7711 38 37.6567 36.8284 38.8283C35.6569 39.9999 33.7712 39.9999 30 39.9999H18C14.2288 39.9999 12.3431 39.9999 11.1716 38.8283C10 37.6567 10 35.7711 10 31.9999V23.5191Z" stroke="#4E4E4E" stroke-width="2"/>
<rect x="20" y="29" width="8" height="10" fill="#4E4E4E"/>
</svg>
