<svg width="14" height="14" viewBox="0 0 14 14" fill="none" xmlns="http://www.w3.org/2000/svg">
<path d="M6.33301 10.3333H7.66634V6.33334H6.33301V10.3333ZM6.99967 5.00001C7.18856 5.00001 7.34701 4.93601 7.47501 4.80801C7.60256 4.68045 7.66634 4.52223 7.66634 4.33334C7.66634 4.14445 7.60256 3.98601 7.47501 3.85801C7.34701 3.73045 7.18856 3.66668 6.99967 3.66668C6.81079 3.66668 6.65256 3.73045 6.52501 3.85801C6.39701 3.98601 6.33301 4.14445 6.33301 4.33334C6.33301 4.52223 6.39701 4.68045 6.52501 4.80801C6.65256 4.93601 6.81079 5.00001 6.99967 5.00001ZM6.99967 13.6667C6.07745 13.6667 5.21079 13.4916 4.39967 13.1413C3.58856 12.7916 2.88301 12.3167 2.28301 11.7167C1.68301 11.1167 1.20812 10.4111 0.858341 9.60001C0.508119 8.7889 0.333008 7.92223 0.333008 7.00001C0.333008 6.07779 0.508119 5.21112 0.858341 4.40001C1.20812 3.5889 1.68301 2.88334 2.28301 2.28334C2.88301 1.68334 3.58856 1.20823 4.39967 0.85801C5.21079 0.508232 6.07745 0.333344 6.99967 0.333344C7.9219 0.333344 8.78856 0.508232 9.59967 0.85801C10.4108 1.20823 11.1163 1.68334 11.7163 2.28334C12.3163 2.88334 12.7912 3.5889 13.141 4.40001C13.4912 5.21112 13.6663 6.07779 13.6663 7.00001C13.6663 7.92223 13.4912 8.7889 13.141 9.60001C12.7912 10.4111 12.3163 11.1167 11.7163 11.7167C11.1163 12.3167 10.4108 12.7916 9.59967 13.1413C8.78856 13.4916 7.9219 13.6667 6.99967 13.6667Z" fill="#4E4E4E"/>
</svg>
